# xmcd CD database file
#
# Track frame offsets:
#	150
#	12813
#	26283
#	37108
#	48063
#	61065
#	75613
#	86202
#	98714
#	112644
#	126231
#	141189
#	155155
#	168173
#	179679
#	193754
#	205313
#	218219
#	231459
#	244343
#
# Disc length: 3414 seconds
#
# Revision: 0
# Processed by: cddbd v1.5.2PL0 Copyright (c) Steve Scherf et al.
# Submitted via: CDex 1.70beta2
#
DISCID=120d5414
DTITLE=Reinhardt, Django - The Absolutely Essential Collection CD 2
DYEAR=2010
DGENRE=Jazz
TTITLE0=Tea for Two
TTITLE1=Japanese Sandman
TTITLE2=Some of These Days
TTITLE3=Swing Guitars
TTITLE4=Avalon
TTITLE5=Sweet Georgia Brown
TTITLE6=Mystery Pacific
TTITLE7=Limehouse Blues
TTITLE8=Django's Blues
TTITLE9=Parfum
TTITLE10=Swing '39
TTITLE11=In the Still of the Night
TTITLE12=I'm Confessin' (That I Love You)
TTITLE13=Tornerai (J'Attendrai)
TTITLE14=Echoes of Spain
TTITLE15=Django Rag
TTITLE16=Smoke Rings
TTITLE17=Shine
TTITLE18=If Dreams Come True
TTITLE19=Tears
EXTD=YEAR: 2010
EXTT0=
EXTT1=
EXTT2=
EXTT3=
EXTT4=
EXTT5=
EXTT6=
EXTT7=
EXTT8=
EXTT9=
EXTT10=
EXTT11=
EXTT12=
EXTT13=
EXTT14=
EXTT15=
EXTT16=
EXTT17=
EXTT18=
EXTT19=
PLAYORDER=
